<?xml version="1.0" encoding="UTF-8"?>
<svg id="Layer_1" data-name="Layer 1" xmlns="http://www.w3.org/2000/svg" viewBox="0 0 1500 680.97">
  <defs>
    <style>
      .cls-1 {
        fill: #d1d5db;
      }

      .cls-2 {
        fill: #1abc9c;
      }

      .cls-3 {
        fill: #ffc33b;
      }

      .cls-4 {
        fill: #005f73;
      }
    </style>
  </defs>
  <path class="cls-4" d="M1432.53,57.28l-28.69,119.87-.89,3.75-11.42-2.73h-.04l.93-3.91,1.89-7.87,26.78-111.86c1.77-7.39-2.8-14.85-10.21-16.61l-98.53-23.59c-7.39-1.77-14.85,2.8-16.61,10.19l-27.5,114.87-.07.27-.71,3.02-.62,2.55-.7,2.93-11.44-2.75,1.34-5.62,28.26-118c3.27-13.7,17.09-22.18,30.8-18.91l98.53,23.59c13.7,3.28,22.18,17.11,18.9,30.82Z"/>
  <path class="cls-4" d="M1107.07,614.3l14.79,3.64c-1.99,8.08-10.25,13.11-18.34,11.17s-13.21-10.23-11.27-18.36l14.81,3.55Z"/>
  <path class="cls-4" d="M1307.96,665.74l14.79,3.64c-1.99,8.08-10.25,13.11-18.34,11.17-8.13-1.95-13.21-10.23-11.27-18.36l14.81,3.55Z"/>
  <g>
    <path class="cls-1" d="M0,136.43h155.35v38.37H47.92v57.32h97.72v38.21H48.08v90.67H0v-224.57Z"/>
    <path class="cls-1" d="M178.84,184.66h43.22l1.88,22.08c7.1-9.29,15.37-15.74,24.82-19.34s21.95-5.4,37.51-5.4v38.37c-19.84,0-35.18,4.72-46.04,14.17-10.86,9.45-16.29,22.21-16.29,38.29v88.17h-45.1v-176.33Z"/>
    <path class="cls-1" d="M355.5,184.66v88.17c0,17.23,2.97,30.28,8.93,39.15,5.95,8.88,15.61,13.31,28.97,13.31,14.2,0,25.16-4.75,32.89-14.25,7.72-9.5,11.59-22.24,11.59-38.21v-88.17h45.1v176.33h-43.22l-1.88-26c-10.65,19-30.54,28.5-59.66,28.5-24.01,0-41.29-7.73-51.83-23.18-10.55-15.45-15.82-37.95-15.82-67.49v-88.17h44.95Z"/>
    <path class="cls-1" d="M653.2,184.66h43.07v162.08c0,13.05-2.38,24.72-7.13,35-4.75,10.28-11.35,18.76-19.81,25.45-8.46,6.68-18.3,11.77-29.52,15.27-11.22,3.5-23.47,5.25-36.72,5.25-17.23,0-32.99-3.08-47.29-9.24-14.3-6.16-26.57-15.14-36.8-26.94l22.24-25.06c14.41,16.49,33.88,24.74,58.41,24.74,14.51,0,26.72-4.13,36.64-12.37,9.92-8.25,14.88-19.58,14.88-33.98v-13.47c-9.29,18.17-30.22,27.25-62.8,27.25-15.35,0-29.36-3.73-42.05-11.2-12.69-7.46-22.71-17.9-30.07-31.32-7.36-13.41-11.04-28.5-11.04-45.26s3.68-31.92,11.04-45.49c7.36-13.57,17.38-24.19,30.07-31.87,12.69-7.67,26.7-11.51,42.05-11.51s27.59,2.5,38.6,7.52c11.01,5.01,19.08,12.01,24.19,20.98l2.04-25.84ZM600.58,321.53c14.09,0,26.05-4.83,35.86-14.49,9.81-9.66,14.72-21.71,14.72-36.17s-4.91-26.49-14.72-36.1c-9.82-9.6-21.77-14.41-35.86-14.41s-25.71,4.83-35.47,14.49c-9.76,9.66-14.64,21.69-14.64,36.1s4.85,26.44,14.56,36.1c9.71,9.66,21.55,14.49,35.55,14.49Z"/>
    <path class="cls-1" d="M801.82,182c14.72,0,27.59,2.5,38.6,7.52,11.01,5.01,19.08,12.01,24.19,20.98l2.04-25.84h43.06v176.33h-43.06l-2.04-26c-9.61,19-30.54,28.5-62.8,28.5-11.59,0-22.47-2.27-32.65-6.81-10.18-4.54-18.98-10.73-26.39-18.56-7.41-7.83-13.29-17.41-17.62-28.74-4.33-11.33-6.5-23.51-6.5-36.57s2.17-25.24,6.5-36.57c4.33-11.33,10.2-20.93,17.62-28.81,7.41-7.88,16.21-14.09,26.39-18.64,10.18-4.54,21.06-6.81,32.65-6.81ZM814.03,325.29c14.2,0,26.18-4.93,35.94-14.8,9.76-9.87,14.64-22.45,14.64-37.74s-4.88-27.85-14.64-37.66c-9.76-9.81-21.74-14.72-35.94-14.72s-25.97,4.91-35.63,14.72c-9.66,9.81-14.49,22.39-14.49,37.74s4.85,27.67,14.56,37.58c9.71,9.92,21.56,14.88,35.55,14.88Z"/>
    <path class="cls-1" d="M939.32,120.45h45.1v240.54h-45.1V120.45Z"/>
    <path class="cls-1" d="M510.52,415.55v38.37h-57.94v186.2h-48.08v-186.2h-57.94v-38.37h163.96Z"/>
    <path class="cls-1" d="M531.83,463.78h43.22l1.88,22.08c7.1-9.29,15.37-15.74,24.82-19.34,9.45-3.6,21.95-5.4,37.51-5.4v38.37c-19.84,0-35.18,4.72-46.04,14.17-10.86,9.45-16.29,22.21-16.29,38.29v88.17h-45.1v-176.33Z"/>
    <path class="cls-1" d="M726.02,461.12c14.72,0,27.59,2.5,38.6,7.52,11.01,5.01,19.08,12.01,24.19,20.98l2.04-25.84h43.07v176.33h-43.07l-2.04-26c-9.61,19-30.54,28.5-62.8,28.5-11.59,0-22.47-2.27-32.65-6.81-10.18-4.54-18.98-10.73-26.39-18.56-7.41-7.83-13.29-17.41-17.62-28.74-4.34-11.33-6.5-23.51-6.5-36.57s2.16-25.24,6.5-36.57c4.33-11.33,10.2-20.93,17.62-28.81,7.41-7.88,16.21-14.09,26.39-18.64,10.18-4.54,21.06-6.81,32.65-6.81ZM738.23,604.41c14.2,0,26.18-4.93,35.94-14.8,9.76-9.87,14.64-22.45,14.64-37.74s-4.88-27.85-14.64-37.66c-9.76-9.81-21.74-14.72-35.94-14.72s-25.97,4.91-35.63,14.72c-9.66,9.81-14.49,22.39-14.49,37.74s4.85,27.67,14.56,37.58c9.71,9.92,21.56,14.88,35.55,14.88Z"/>
    <path class="cls-1" d="M886.23,440.61c-7.52,0-13.89-2.61-19.1-7.83-5.22-5.22-7.83-11.59-7.83-19.11s2.61-13.57,7.83-18.79c5.22-5.22,11.59-7.83,19.1-7.83s13.57,2.61,18.79,7.83c5.22,5.22,7.83,11.49,7.83,18.79s-2.61,13.89-7.83,19.11c-5.22,5.22-11.48,7.83-18.79,7.83ZM863.52,463.78h45.1v176.33h-45.1v-176.33Z"/>
    <path class="cls-1" d="M939.32,399.58h45.1v240.54h-45.1v-240.54Z"/>
  </g>
  <g>
    <g>
      <path class="cls-2" d="M1498.21,261.1l-31.23,123.47c-5.5,21.66-10.99,43.38-16.45,65.04-32.58,4.96-72.07-12.92-92.37-22.09-22.11-10.01-73.28-36.33-143.94-124.92-22.43-28.07-50.1-66.55-77.31-115.87-4.84-8.76-8.89-17.95-12.24-27.39-2.73-7.71-4.66-13.11-5.94-16.83,1.04,2.8,2.66,7.08,4.78,11.95,1.84,4.25,3.62,7.92,5.12,10.87.68,1.34,2.62,1.18,3.07-.23,2.44-7.55,9.12-22.79,25.75-32.69,20.22-12.04,40.31-7.39,44.11-6.42l54.49,13.79,3.6.91,7.74,1.96c-.2.86-.39,1.71-.55,2.57-6.58,33.62,14.36,66.82,47.98,75.1,5.19,1.28,10.38,1.89,15.51,1.89,27.34,0,52.32-17.45,61.2-44.05.43-1.27.82-2.53,1.16-3.84l3.18.8h.02l7.96,2.02,52.19,13.2c31.19,7.9,50.07,39.56,42.18,70.75Z"/>
      <path class="cls-2" d="M1267.39,142.66l.07.02-.62,2.55c.16-.86.36-1.71.55-2.57Z"/>
      <path class="cls-2" d="M1392.68,174.33c-.34,1.3-.73,2.57-1.16,3.84h-.04l.93-3.91.27.07Z"/>
      <path class="cls-2" d="M1409.72,610.84l-3.8,15.04c-7.9,31.19-39.58,50.07-70.73,42.16l-61.88-15.65c1.23-5.07,1.8-10.12,1.8-15.11,0-29.03-19.73-55.46-49.21-62.7-5.19-1.28-10.38-1.89-15.51-1.89-28.66,0-54.74,19.2-62.38,48.02l-67.34-17.04c-31.17-7.89-50.03-39.56-42.16-70.73l71.57-282.9c2.18-8.58,2.36-17.56.52-26.23l-15.93-75.26c6.67,27.75,13.36,55.51,20.04,83.24,12.44,51.21,27.55,93.34,40.9,125.58,3.25,7.74,6.42,15.17,9.62,22.23,31.67,70.32,61.76,109.11,76.78,127.2,22.34,26.84,52.73,61.61,104.99,85.15,24.25,10.9,46.36,16.18,62.74,18.9Z"/>
      <g>
        <path class="cls-3" d="M1472.67,471.35c-8.31,6.48-19.37,10.16-30.67,11.99-7.99,1.31-16.15,1.64-23.47,1.41-42.86-1.43-85.8-24.43-117.46-52.45-21.24-18.75-38-41.87-54.5-64.64,1.79-1.54,2.55-1.24,4.08.32,2,2.04,4.35,6.84,6.98,9.78,45.26,50.26,115.13,97.98,184.87,97.25.54,0,1.09,0,1.62-.04,9.68-.22,19.05-1.58,28.55-3.62Z"/>
        <path class="cls-3" d="M1472.67,471.35c-8.31,6.48-19.37,10.16-30.67,11.99-7.99,1.31-16.15,1.64-23.47,1.41-42.86-1.43-85.8-24.43-117.46-52.45-21.24-18.75-38-41.87-54.5-64.64,1.79-1.54,2.55-1.24,4.08.32,2,2.04,4.35,6.84,6.98,9.78,45.26,50.26,115.13,97.98,184.87,97.25.54,0,1.09,0,1.62-.04,9.68-.22,19.05-1.58,28.55-3.62Z"/>
      </g>
    </g>
    <path class="cls-2" d="M1267.51,142.12c.2-.84.43-1.66.66-2.46l-.71,3.02-.62,2.55c.16-.86.36-1.71.55-2.57.04-.18.09-.36.12-.54Z"/>
    <path class="cls-2" d="M1394.31,166.39c-.3,2.19-.73,4.41-1.27,6.62-.11.45-.21.87-.36,1.32-.34,1.3-.73,2.57-1.16,3.84h-.04l.93-3.91,1.89-7.87Z"/>
  </g>
  <g id="Ng5sVT">
    <path class="cls-3" d="M1032.23,96.53l-12.12-17.14c-1-2.2-2.57-4.55-3.25-6.86-.13-.42-.58-1.35.21-1.27.9,1.61,2.52,3.51,3.78,4.85,28.13,29.96,73.57,60.88,116.09,42.8l11.08-6.81c-2.83.24-5.84,1.02-8.63,1.25-15.06,1.27-26.92-1.07-40.07-8.34-6.38-3.53-12.33-7.94-17.82-12.7,19.17-2.35,38.08-6.36,56.84-10.74l-7.96-8.03c-29.36-3.92-68.44-4.71-91.41-25.65-6.3-5.74-11.01-12.83-16.62-19.17-12.94-14.63-31.76-30.26-52.63-28.62-7.55.59-11.99,2.43-6.71,10.06,9.97,14.42,25.11,28.21,35.95,42.36,4.35,5.68,4.5,8.84-.19,14.52-7.77,9.4-23.09,14.54-33.89,19.57l6.52,7.79c20.23,2.07,40.55,2.78,60.84,2.1Z"/>
  </g>
</svg>